<?xml version="1.0" standalone="no"?>
<!DOCTYPE svg PUBLIC "-//W3C//DTD SVG 20010904//EN"
 "http://www.w3.org/TR/2001/REC-SVG-20010904/DTD/svg10.dtd">
<svg version="1.0" xmlns="http://www.w3.org/2000/svg"
 width="1024.000000pt" height="1024.000000pt" viewBox="0 0 1024.000000 1024.000000"
 preserveAspectRatio="xMidYMid meet">

<g transform="translate(0.000000,1024.000000) scale(0.100000,-0.100000)"
fill="#000000" stroke="none">
<path d="M0 5120 l0 -5120 5120 0 5120 0 0 5120 0 5120 -5120 0 -5120 0 0
-5120z m2462 3892 c17 -12 15 -15 -16 -47 l-34 -34 -35 32 -34 32 36 35 c35
35 36 36 50 15 8 -11 23 -26 33 -33z m5250 -46 l-34 -32 -32 31 -31 30 35 35
35 35 31 -34 31 -34 -35 -31z m-2402 -298 c140 -78 410 -229 600 -336 190
-107 395 -222 455 -255 61 -33 238 -133 395 -222 157 -89 337 -190 400 -225
63 -34 130 -73 148 -87 l32 -24 0 -1552 0 -1553 -127 -68 c-163 -88 -285 -154
-558 -303 -121 -66 -284 -154 -362 -194 l-142 -74 -35 34 c-19 19 -33 38 -30
43 3 4 22 16 42 26 20 10 82 43 137 74 55 30 132 72 170 93 39 21 169 93 290
160 121 67 284 157 363 200 l142 79 0 1492 0 1492 -77 45 c-95 55 -399 225
-703 394 -124 69 -265 149 -315 178 -97 57 -482 273 -790 443 -104 57 -212
118 -238 133 -27 16 -52 29 -56 29 -5 0 -125 -66 -267 -146 -143 -80 -333
-188 -424 -239 -91 -51 -352 -198 -580 -328 -228 -129 -523 -294 -655 -367
-132 -72 -245 -138 -251 -146 -9 -11 -11 -384 -9 -1462 2 -796 4 -1464 4
-1484 l1 -36 173 -95 c94 -52 253 -139 352 -192 243 -130 614 -339 614 -345 0
-3 -14 -20 -31 -39 l-31 -35 -41 23 c-23 12 -88 48 -146 78 -143 77 -279 150
-515 278 -110 59 -256 139 -325 176 -69 37 -133 74 -144 82 -17 13 -18 64 -18
1488 0 811 1 1508 1 1549 l1 75 153 84 c83 46 343 193 577 326 516 294 677
385 1020 575 146 81 324 181 395 223 72 41 134 75 140 76 5 1 125 -63 265
-141z m-2866 80 c13 -22 -14 -54 -38 -45 -16 6 -22 48 -9 61 11 11 35 3 47
-16z m5254 13 c8 -4 12 -19 10 -32 -2 -18 -9 -24 -28 -24 -19 0 -26 6 -28 24
-3 20 11 41 28 41 3 0 11 -4 18 -9z m-3387 -32 c32 -32 11 -81 -35 -81 -53 0
-73 45 -36 82 25 25 45 25 71 -1z m1549 1 c26 -26 25 -36 -4 -65 -20 -20 -30
-23 -48 -16 -34 12 -46 55 -23 81 23 25 49 26 75 0z m-1820 -19 c0 -26 -8 -34
-65 -66 l-65 -36 0 -59 0 -59 55 25 c31 13 59 24 63 24 5 0 6 -15 4 -34 -3
-30 -11 -36 -69 -65 -36 -18 -81 -40 -101 -48 l-35 -15 6 54 c4 29 7 91 7 138
l0 85 83 42 c100 51 117 53 117 14z m2134 -12 l86 -41 0 -98 c0 -94 1 -97 25
-108 20 -9 25 -19 25 -47 0 -19 -3 -35 -7 -35 -5 0 -59 25 -120 55 -113 54
-113 54 -113 89 0 42 7 43 60 16 61 -31 70 -28 70 29 l0 49 -67 38 c-55 32
-69 45 -71 67 -4 37 9 35 112 -14z m-2542 -319 c2 -105 2 -195 0 -200 -2 -6
-74 -10 -183 -10 l-179 0 0 200 0 200 180 0 179 0 3 -190z m3193 -4 l0 -194
-102 -7 c-57 -4 -137 -4 -178 0 l-75 7 0 194 0 194 178 0 177 0 0 -194z
m-1653 54 c114 -35 195 -105 248 -215 44 -91 44 -227 0 -330 -30 -70 -128
-162 -223 -207 -42 -21 -79 -38 -82 -38 -3 0 -5 49 -5 108 0 108 0 108 31 138
17 16 39 45 49 64 21 42 35 100 24 100 -5 0 -30 -21 -56 -47 l-48 -47 0 54 c0
52 3 58 47 103 l46 48 -74 75 c-40 40 -76 74 -80 74 -12 0 -149 -132 -149
-143 0 -6 23 -34 51 -63 48 -48 50 -53 47 -97 l-3 -47 -50 40 -50 40 -3 -25
c-4 -32 44 -121 80 -146 28 -20 28 -22 28 -125 0 -105 0 -105 -22 -99 -44 14
-124 57 -176 96 -107 81 -154 177 -154 317 1 147 63 260 182 330 108 64 225
78 342 42z m-2712 -140 c24 -24 25 -43 4 -64 -18 -19 -65 -21 -82 -4 -29 29
-2 88 39 88 10 0 28 -9 39 -20z m646 -32 c-3 -29 -6 -89 -6 -133 l0 -81 -67
-39 c-92 -52 -269 -145 -277 -145 -4 0 -6 17 -4 38 3 36 6 39 113 99 183 103
175 95 175 154 l0 50 -145 -74 -145 -75 0 38 c0 37 2 39 78 81 162 89 257 138
271 139 11 0 12 -11 7 -52z m4104 -56 c63 -35 121 -69 128 -76 8 -7 12 -27 10
-44 l-3 -31 -135 74 c-129 71 -135 73 -143 53 -4 -12 -6 -35 -4 -52 3 -27 17
-38 143 -111 135 -80 139 -83 142 -119 2 -20 1 -36 -2 -36 -8 0 -137 70 -251
135 l-90 52 -3 132 -3 131 48 -22 c26 -13 100 -52 163 -86z m478 41 c-2 -36
-7 -49 -20 -51 -15 -3 -18 4 -18 47 0 45 3 51 21 51 18 0 20 -5 17 -47z
m-3227 -79 c9 -11 10 -20 2 -32 -24 -39 -82 -15 -68 28 8 24 47 27 66 4z
m1239 -5 c14 -26 -4 -51 -34 -47 -21 3 -32 28 -22 54 8 21 44 17 56 -7z
m-3240 -124 c0 -8 -9 -15 -20 -15 -11 0 -20 -7 -20 -15 0 -8 9 -15 20 -15 11
0 20 -4 20 -10 0 -5 -18 -10 -40 -10 l-40 0 0 40 0 40 40 0 c29 0 40 -4 40
-15z m5244 -31 c23 -22 20 -41 -8 -59 -31 -21 -66 -5 -66 28 0 44 43 62 74 31z
m-3346 -23 c103 -53 162 -155 162 -281 0 -104 -28 -172 -102 -242 -65 -64
-124 -88 -212 -88 -103 0 -222 82 -267 185 -31 69 -32 200 -2 266 37 82 104
143 192 176 54 20 175 12 229 -16z m1638 0 c105 -49 173 -151 182 -271 21
-296 -314 -452 -513 -239 -60 65 -87 127 -93 215 -4 57 0 80 17 120 32 72 70
122 115 153 57 39 91 49 166 50 52 1 77 -5 126 -28z m-3620 -236 c2 -25 -1
-45 -5 -45 -4 0 -7 22 -7 49 1 60 9 57 12 -4z m47 8 c-7 -2 -19 -2 -25 0 -7 3
-2 5 12 5 14 0 19 -2 13 -5z m4037 -8 c100 -52 35 -190 -72 -153 -56 20 -66
91 -19 139 33 33 50 35 91 14z m-2725 -20 c35 -34 33 -78 -4 -116 -38 -37 -82
-39 -116 -4 -28 27 -32 63 -10 105 17 32 27 38 73 39 22 1 41 -7 57 -24z
m3960 -15 c0 -20 -6 -26 -27 -28 -25 -3 -28 0 -28 28 0 28 3 31 28 28 21 -2
27 -8 27 -28z m-2860 -154 l150 -84 3 -51 c2 -28 1 -51 -2 -51 -17 0 -35 14
-29 23 3 5 2 8 -3 4 -5 -3 -27 5 -49 18 -31 19 -36 25 -22 31 9 3 14 10 11 15
-9 15 8 10 28 -8 10 -9 18 -12 18 -7 0 5 -14 18 -31 28 -18 11 -29 14 -25 7 5
-7 -1 -11 -14 -11 -14 0 -19 -4 -14 -12 11 -17 -20 -4 -101 44 -38 23 -70 42
-71 42 -6 3 -12 96 -6 96 4 0 75 -38 157 -84z m585 36 c0 -46 -1 -49 -42 -70
-84 -42 -133 -71 -148 -85 -20 -18 -107 -77 -114 -77 -3 0 -6 26 -6 58 l1 57
147 82 c81 45 150 82 155 82 4 1 7 -21 7 -47z m-2982 -9 c24 -21 39 -63 22
-63 -6 0 -9 -4 -5 -9 10 -18 -26 -41 -66 -41 l-39 0 0 65 0 65 34 0 c19 0 43
-8 54 -17z m990 -49 c30 -34 28 -70 -7 -105 -34 -34 -68 -37 -104 -9 -31 25
-41 63 -25 98 27 56 93 64 136 16z m3353 7 c35 -36 37 -70 5 -107 -18 -21 -32
-28 -61 -28 -29 0 -43 7 -61 28 -71 82 40 183 117 107z m-2964 -136 c56 -65 9
-165 -77 -165 -34 0 -47 6 -71 31 -42 45 -40 90 6 136 32 32 39 35 78 30 28
-4 49 -14 64 -32z m1022 -55 c83 -47 151 -91 151 -99 0 -9 -4 -10 -12 -3 -7 5
-38 23 -68 40 -30 16 -84 46 -120 66 -36 20 -77 42 -92 47 -16 6 -28 18 -28
26 0 19 -6 22 169 -77z m581 77 c0 -7 -57 -45 -126 -83 -69 -38 -134 -77 -146
-88 -16 -15 -22 -16 -28 -5 -6 8 -2 18 10 26 18 13 282 162 288 163 1 0 2 -6
2 -13z m1002 -16 c65 -58 31 -156 -58 -168 -45 -6 -89 21 -105 65 -22 57 36
132 103 132 16 0 41 -12 60 -29z m-3334 -21 l42 -30 0 -850 c0 -680 -3 -850
-13 -850 -7 0 -29 11 -49 25 l-36 24 -4 588 c-4 664 1 1123 12 1123 4 0 26
-14 48 -30z m3991 -824 l2 -855 -44 -25 c-24 -14 -48 -26 -53 -26 -5 0 -9 347
-10 853 l-1 854 46 25 c25 14 49 26 52 27 4 0 7 -383 8 -853z m609 777 c-3
-50 -21 -66 -26 -24 -5 31 6 71 19 71 6 0 9 -19 7 -47z m-3168 -37 c0 -20 -27
-39 -45 -32 -25 9 -30 37 -10 52 20 15 55 2 55 -20z m1124 12 c8 -14 7 -21 -6
-34 -30 -30 -75 9 -48 42 16 18 39 15 54 -8z m2116 -41 c0 -10 -10 -12 -32 -8
l-33 5 30 7 c17 4 31 7 33 8 1 0 2 -5 2 -12z m-4420 -88 c0 -12 -11 -11 -40 6
-14 8 -28 14 -32 15 -4 0 -9 -98 -11 -217 l-2 -218 -3 237 -2 237 45 -26 c25
-13 45 -29 45 -34z m3530 51 c0 -6 -20 -23 -45 -38 l-44 -27 -3 -215 -4 -215
1 230 0 229 40 23 c45 25 55 28 55 13z m-1456 -29 c-11 -11 -284 -171 -291
-171 -3 0 -3 4 -1 10 4 12 291 180 297 174 3 -2 0 -8 -5 -13z m-573 -77 c82
-47 149 -90 149 -94 0 -5 -64 29 -142 76 -79 46 -149 84 -155 84 -7 0 -13 5
-13 10 0 6 3 10 6 10 4 0 73 -39 155 -86z m-591 50 c47 -8 105 -21 130 -28
277 -82 610 -362 610 -514 l0 -34 -44 58 c-24 33 -54 68 -67 79 -169 142 -231
185 -375 258 -82 42 -193 76 -303 92 -39 6 -43 5 -38 -10 4 -9 7 -27 7 -39 0
-19 10 -27 48 -41 74 -28 250 -119 332 -174 110 -72 228 -177 287 -256 58 -78
126 -200 121 -217 -2 -6 -60 45 -128 114 -111 110 -237 218 -255 218 -3 0 -32
17 -63 38 -79 53 -313 184 -319 179 -11 -11 87 -154 137 -201 31 -28 120 -91
197 -139 78 -48 145 -92 148 -97 9 -15 -91 -12 -153 4 -113 31 -253 127 -339
235 -83 104 -159 292 -188 464 l-6 38 88 -6 c48 -4 126 -13 173 -21z m1853
-11 c-3 -21 -17 -76 -30 -122 -84 -294 -227 -474 -443 -555 -69 -25 -200 -45
-200 -29 0 9 104 79 213 144 96 56 189 148 231 228 20 39 35 71 32 71 -22 0
-323 -175 -423 -247 -35 -24 -63 -42 -63 -39 0 15 -183 -182 -229 -247 -30
-42 -57 -74 -60 -72 -2 3 0 10 6 16 6 6 9 19 6 28 -4 12 -3 13 5 3 7 -11 10
-9 15 7 3 12 1 19 -4 15 -34 -21 51 126 132 228 118 147 271 256 554 394 77
37 80 41 83 76 l3 36 -68 -15 c-160 -35 -334 -114 -485 -218 -67 -48 -213
-187 -239 -230 l-19 -30 0 43 c0 60 37 120 137 219 178 176 393 281 638 312
80 10 108 13 192 19 20 2 21 -2 16 -35z m1620 -5 c22 -11 22 -54 1 -66 -11 -6
-13 -11 -5 -16 6 -4 11 -11 11 -17 0 -15 -32 -10 -52 8 -17 15 -18 15 -18 -4
0 -12 -7 -23 -15 -27 -12 -4 -15 7 -15 65 l0 70 38 -2 c20 -1 45 -6 55 -11z
m-5343 -59 c0 -11 -4 -18 -9 -15 -5 4 -12 0 -14 -6 -3 -7 -6 -1 -6 15 -1 18 4
27 14 27 8 0 15 -9 15 -21z m90 -39 l0 -60 -60 0 c-33 0 -60 4 -60 10 0 11 9
13 63 10 l37 -2 0 51 c0 28 5 51 10 51 6 0 10 -27 10 -60z m1150 0 c39 -39 11
-110 -42 -110 -29 0 -42 9 -57 38 -33 63 49 122 99 72z m2938 4 c46 -32 18
-114 -39 -114 -28 0 -61 34 -61 63 0 56 53 84 100 51z m-2678 -142 c21 -17 21
-17 -23 -14 -38 3 -47 0 -66 -23 -11 -15 -21 -39 -21 -52 0 -14 -4 -21 -10
-18 -28 17 2 92 45 111 40 18 49 17 75 -4z m2406 3 c18 -13 17 -14 -19 -15
-43 0 -69 -24 -78 -73 l-5 -32 -9 28 c-10 37 11 76 50 93 38 17 38 17 61 -1z
m1348 -13 c-7 -4 -8 -29 -4 -69 4 -48 3 -63 -7 -63 -9 0 -13 20 -13 70 0 60 2
70 18 70 10 0 13 -3 6 -8z m-5226 -38 c-4 -3 -9 -4 -12 -2 -10 6 -35 -37 -36
-61 0 -30 26 -61 52 -61 26 0 58 36 58 64 0 15 -11 33 -27 45 -28 21 -28 22
-4 19 13 -2 33 -15 44 -30 18 -24 18 -30 7 -58 -15 -36 -37 -50 -81 -50 -43 0
-69 25 -69 67 0 36 29 73 57 73 9 0 14 -3 11 -6z m5299 -96 c1 -10 -2 -18 -8
-18 -5 0 -9 5 -9 10 0 6 -9 10 -20 10 -11 0 -20 4 -20 9 0 5 13 8 28 8 19 -1
29 -7 29 -19z m-2 -38 c3 -5 1 -10 -4 -10 -6 0 -11 5 -11 10 0 6 2 10 4 10 3
0 8 -4 11 -10z m-4088 -103 c334 -203 764 -484 827 -541 24 -21 33 -36 28 -48
-6 -14 -55 12 -292 154 -157 94 -379 226 -495 294 l-210 122 -3 51 c-2 28 -1
51 2 51 3 0 68 -38 143 -83z m3013 36 l0 -48 -62 -35 c-139 -79 -861 -509
-910 -543 -24 -16 -47 6 -32 31 13 21 365 256 649 434 116 72 237 148 270 169
33 21 66 38 73 38 8 1 12 -15 12 -46z m1075 7 c3 -5 1 -10 -4 -10 -6 0 -11 5
-11 10 0 6 2 10 4 10 3 0 8 -4 11 -10z m-850 -102 c-3 -40 -7 -74 -8 -74 -5
-4 -590 -347 -757 -444 -286 -166 -579 -339 -625 -368 -22 -15 -43 -25 -47
-24 -5 1 -8 -3 -8 -9 0 -6 -9 -9 -19 -6 -14 3 -18 1 -14 -9 4 -10 0 -12 -13
-7 -12 4 -15 3 -10 -5 4 -7 2 -12 -3 -12 -6 0 -16 9 -23 20 -7 11 -16 20 -21
20 -4 0 -5 -4 -2 -10 3 -5 -2 -10 -12 -11 -11 0 -13 -3 -5 -6 6 -2 10 -9 6
-14 -3 -5 0 -9 5 -9 6 0 11 -4 11 -9 0 -14 -53 -8 -58 7 -5 16 15 16 21 0 4
-10 6 -10 6 -1 1 6 -4 15 -10 18 -7 5 -6 12 3 24 7 9 -2 1 -21 -19 -18 -19
-35 -34 -37 -32 -9 6 -31 -15 -73 -70 -24 -32 -45 -58 -47 -58 -2 0 8 23 24
51 36 67 150 189 228 245 77 55 346 220 599 367 105 61 255 149 335 195 339
199 556 322 569 322 11 0 12 -14 6 -72z m-3353 -69 c388 -219 932 -542 1138
-676 152 -99 278 -213 329 -297 19 -31 31 -59 28 -62 -3 -3 -12 7 -21 23 -8
15 -36 48 -62 73 -26 25 -44 38 -39 30 4 -8 -1 -6 -12 5 -11 11 -19 23 -17 26
6 11 -35 18 -42 8 -3 -5 -2 -9 3 -8 21 4 22 -3 7 -28 -9 -16 -10 -21 -3 -13
22 24 42 24 27 1 -7 -11 -20 -18 -31 -15 -28 5 -32 11 -17 29 11 13 11 16 -1
13 -8 -2 -17 -7 -20 -12 -6 -8 -14 -3 -52 30 -12 10 -72 46 -597 356 -292 172
-636 372 -777 452 l-103 58 0 69 c0 54 3 69 15 69 8 0 119 -59 247 -131z
m4145 59 c-2 -13 -4 -3 -4 22 0 25 2 35 4 23 2 -13 2 -33 0 -45z m-3684 36
c63 -33 318 -205 449 -302 191 -143 225 -177 70 -72 -73 50 -137 88 -143 84
-6 -3 -18 0 -27 8 -31 24 -63 39 -73 33 -11 -8 -57 19 -231 132 l-130 84 23
25 c27 29 22 28 62 8z m2219 -11 l28 -26 -118 -77 c-64 -42 -146 -93 -182
-114 -36 -22 -78 -48 -95 -59 -27 -19 -28 -19 -15 -2 14 17 13 18 -8 13 -20
-6 -21 -4 -10 10 10 12 8 12 -14 -2 -26 -17 -41 -35 -16 -20 7 4 8 3 4 -5 -4
-6 -15 -10 -24 -9 -10 2 -16 -3 -14 -10 1 -8 -2 -11 -7 -7 -13 8 -71 -30 -170
-109 -44 -36 -78 -59 -75 -51 8 20 147 134 249 204 50 33 99 68 111 76 41 30
319 214 323 215 3 0 17 -12 33 -27z m1538 -28 c-7 -8 -17 -15 -23 -15 -6 0 -2
7 9 15 25 19 30 19 14 0z m-5309 -37 c21 -3 29 -1 29 11 0 14 1 14 10 1 17
-26 11 -30 -39 -30 -47 0 -48 1 -43 28 4 17 7 21 10 11 2 -10 16 -19 33 -21z
m59 -158 c24 -24 26 -67 3 -92 -12 -13 -30 -18 -70 -18 l-53 0 0 44 c0 58 18
69 22 14 3 -42 4 -43 36 -41 88 4 78 91 -11 95 -49 2 -36 18 14 18 26 0 46 -7
59 -20z m5280 0 c0 -15 -7 -20 -29 -20 -34 0 -51 18 -30 31 26 17 59 10 59
-11z m-4350 -156 l0 -31 -75 39 c-67 35 -75 42 -75 69 l0 29 75 -37 c70 -35
75 -40 75 -69z m3450 73 c0 -31 -4 -35 -75 -70 l-75 -37 0 33 c0 29 6 35 68
69 37 21 70 38 75 38 4 0 7 -15 7 -33z m-3517 -147 c53 -27 67 -39 67 -57 0
-13 -1 -23 -3 -23 -1 0 -29 14 -60 30 -32 17 -60 30 -63 30 -2 0 -4 -128 -4
-285 0 -183 -4 -285 -10 -285 -6 0 -10 112 -10 316 0 174 3 314 8 312 4 -2 37
-19 75 -38z m3515 9 c-2 -14 -22 -31 -56 -49 -29 -15 -56 -31 -59 -34 -3 -3
-8 -133 -10 -288 -3 -156 -7 -285 -9 -287 -2 -2 -4 135 -4 305 l0 310 63 31
c75 38 79 39 75 12z m-3178 -90 c0 -16 -2 -29 -5 -29 -2 0 -34 14 -70 32 -60
30 -65 35 -65 64 l0 32 70 -35 c63 -31 70 -38 70 -64z m2908 73 c2 -24 -6 -32
-61 -65 -35 -20 -67 -37 -71 -37 -4 0 -6 14 -4 32 3 27 12 36 63 64 33 19 62
34 65 34 3 0 7 -13 8 -28z m-4148 -102 c0 -63 -2 -70 -20 -70 -18 0 -20 7 -20
64 0 60 5 72 33 75 4 1 7 -30 7 -69z m5292 23 c22 -20 23 -51 1 -75 -32 -36
-103 -12 -103 35 0 49 64 75 102 40z m-4115 -83 c71 -40 88 -71 26 -45 -51 21
-113 63 -113 76 0 15 16 9 87 -31z m2973 30 c0 -6 -27 -27 -60 -48 l-59 -37
-3 -295 -2 -295 -6 310 c-3 171 -3 311 0 313 3 1 28 15 55 31 54 31 75 37 75
21z m-2697 -40 c58 -30 67 -38 67 -62 0 -15 -4 -28 -10 -28 -13 0 -89 40 -96
51 -3 5 -14 9 -25 9 -15 0 -19 7 -19 36 0 20 3 34 8 32 4 -2 37 -19 75 -38z
m2425 10 c-3 -27 -13 -36 -75 -70 l-73 -39 0 33 c0 31 5 36 68 69 37 20 71 37
75 37 5 0 7 -14 5 -30z m-2428 -155 c40 -20 70 -42 70 -50 0 -21 -17 -19 -77
10 l-53 24 0 -285 c0 -192 -3 -283 -10 -279 -10 6 -14 615 -4 615 2 0 36 -16
74 -35z m2428 19 c-2 -9 -32 -33 -68 -53 l-65 -37 0 -287 c0 -158 -3 -287 -7
-287 -5 0 -8 137 -8 304 l0 304 63 36 c69 39 90 44 85 20z m-2147 -36 c71 -37
79 -45 79 -71 0 -16 -4 -27 -8 -25 -4 2 -43 21 -85 43 -68 35 -77 43 -77 68 0
15 3 27 6 27 4 0 42 -19 85 -42z m1869 18 c0 -28 -5 -32 -92 -80 l-68 -38 0
34 c0 32 4 36 73 70 39 20 75 37 80 37 4 1 7 -10 7 -23z m-1869 -158 c52 -29
79 -49 79 -60 0 -23 1 -24 -80 17 l-70 35 -2 -292 c-1 -161 -3 -268 -5 -238
-4 84 -8 580 -5 580 2 0 39 -19 83 -42z m1869 19 c0 -18 -15 -31 -70 -61 l-70
-37 0 -290 c0 -186 -4 -289 -10 -289 -6 0 -10 110 -10 309 l0 309 73 40 c39
22 75 41 80 41 4 1 7 -9 7 -22z m1645 -27 c8 0 21 10 29 21 17 25 46 19 46
-10 0 -25 -46 -61 -78 -61 -29 0 -72 36 -72 60 0 9 6 22 12 28 10 10 17 7 31
-13 10 -14 25 -25 32 -25z m-5283 20 c16 -26 26 -25 47 2 22 27 54 18 49 -14
-4 -29 -61 -62 -93 -54 -29 7 -60 49 -51 71 8 21 34 19 48 -5z m2938 -63 c0
-5 -4 -5 -10 -2 -5 3 -10 14 -10 23 0 15 2 15 10 2 5 -8 10 -19 10 -23z m-116
-22 c-4 -8 -11 -15 -16 -15 -6 0 -5 6 2 15 7 8 14 15 16 15 2 0 1 -7 -2 -15z
m36 -5 c0 -5 -2 -10 -4 -10 -3 0 -8 5 -11 10 -3 6 -1 10 4 10 6 0 11 -4 11
-10z m-485 -169 c97 -57 168 -82 252 -88 104 -8 176 10 290 74 54 30 126 71
161 90 35 19 65 34 66 32 2 -2 2 -65 -1 -139 l-6 -135 -171 -102 c-94 -56
-184 -107 -199 -112 -46 -18 -167 -13 -212 8 -46 20 -317 175 -352 200 -21 15
-22 23 -23 149 l0 134 63 -35 c34 -20 94 -54 132 -76z m2085 -116 c0 -63 -4
-115 -9 -115 -11 0 -396 -213 -526 -291 -49 -30 -102 -61 -117 -68 -25 -13
-28 -20 -28 -64 0 -27 3 -47 8 -45 43 20 196 102 299 161 144 83 357 197 366
197 4 0 7 -25 7 -55 l0 -54 -67 -37 c-38 -20 -153 -85 -258 -144 -104 -59
-224 -126 -265 -149 -41 -23 -85 -49 -97 -57 l-23 -16 0 224 0 225 53 28 c61
33 177 100 407 235 141 83 238 138 248 140 1 0 2 -52 2 -115z m-3200 -118
l305 -174 3 -217 c1 -119 -1 -216 -5 -216 -3 0 -14 6 -22 14 -16 13 -220 129
-369 209 -41 22 -126 69 -190 106 l-117 66 -3 58 -3 58 33 -17 c18 -9 74 -40
123 -69 131 -76 512 -285 519 -285 3 0 6 22 6 49 l0 49 -112 65 c-62 35 -185
104 -273 152 -88 48 -190 105 -227 127 l-68 39 0 105 0 104 48 -24 c26 -14
184 -103 352 -199z m-1212 131 c-3 -67 -5 -73 -25 -76 -22 -3 -23 0 -23 66 0
74 3 82 32 82 17 0 19 -7 16 -72z m5262 -3 c0 -73 -1 -75 -25 -75 -24 0 -25 2
-25 68 0 74 3 82 32 82 16 0 18 -9 18 -75z m-2972 -325 c178 -103 225 -120
328 -120 83 0 146 18 219 63 56 34 257 147 262 147 2 0 3 -38 3 -84 l0 -84
-137 -81 c-194 -112 -222 -124 -323 -129 -66 -3 -98 0 -141 15 -49 17 -307
154 -350 186 -12 9 -17 35 -21 95 -3 45 -3 82 -1 82 2 0 74 -41 161 -90z
m-2332 -7 c19 -24 24 -26 38 -14 9 7 16 20 16 28 0 26 35 9 38 -18 4 -32 -37
-69 -75 -69 -26 0 -73 40 -73 63 0 13 19 37 29 37 3 0 15 -12 27 -27z m5252 2
c15 -32 39 -32 54 0 15 32 42 28 46 -6 4 -31 -37 -69 -73 -69 -31 0 -75 37
-75 64 0 43 30 50 48 11z m-4243 -266 c160 -89 350 -196 424 -236 74 -41 213
-121 310 -177 97 -57 195 -114 219 -126 41 -23 42 -24 42 -78 0 -47 -2 -53
-17 -48 -25 10 -267 146 -418 236 -71 42 -184 106 -250 140 -66 35 -183 100
-260 145 -77 45 -189 109 -250 142 -194 106 -175 90 -175 156 l0 59 43 -25
c23 -14 173 -98 332 -188z m3668 149 c-3 -29 -8 -56 -12 -60 -3 -3 -71 -43
-151 -89 -557 -316 -830 -469 -836 -469 -3 0 -21 -10 -42 -23 -20 -13 -75 -44
-122 -69 -116 -62 -162 -89 -183 -107 -17 -14 -18 -12 -15 49 l3 64 150 86
c83 47 245 139 360 204 116 65 271 154 346 197 221 127 483 269 496 269 9 0
10 -15 6 -52z m-2807 -34 l134 -77 0 -208 c0 -133 -4 -209 -10 -209 -6 0 -10
40 -10 99 0 79 -3 100 -15 105 -13 4 -15 -10 -17 -87 l-2 -92 -3 92 c-3 65 -8
95 -18 103 -13 11 -15 1 -15 -74 0 -51 -4 -86 -10 -86 -6 0 -10 38 -10 94 0
73 -3 95 -15 99 -12 5 -15 -10 -18 -86 l-3 -92 -2 96 c-2 74 -5 98 -17 102
-12 5 -15 -10 -18 -81 l-3 -87 -2 103 c-2 83 -5 102 -17 102 -12 0 -15 -18
-17 -92 -1 -66 -3 -75 -5 -33 -2 33 -6 76 -10 95 l-6 35 -7 -30 c-4 -16 -8
-54 -9 -83 0 -29 -5 -51 -9 -48 -10 6 -16 416 -7 416 4 0 67 -34 141 -76z
m1713 -31 c-1 -60 -5 -157 -9 -218 l-7 -110 -1 83 c-2 65 -5 82 -17 82 -12 0
-15 -17 -15 -92 0 -64 -3 -88 -10 -78 -5 8 -10 48 -10 88 0 40 -4 72 -10 72
-13 0 -19 -32 -23 -120 l-3 -75 -2 83 c-2 65 -5 82 -17 82 -12 0 -15 -18 -17
-97 l-2 -98 -3 93 c-3 68 -7 92 -16 89 -8 -2 -14 -39 -17 -108 l-6 -104 -4 89
c-3 59 -9 91 -17 94 -10 3 -14 -22 -15 -100 l-2 -103 -3 88 c-3 64 -7 87 -16
84 -8 -2 -14 -38 -17 -103 l-5 -99 -7 70 c-10 86 -10 266 -2 329 l7 46 96 54
c119 67 154 85 164 86 4 0 6 -48 6 -107z m-1223 -173 c154 -89 190 -101 289
-103 118 -1 183 24 390 153 104 65 101 67 97 -58 -3 -92 -6 -109 -23 -122 -11
-8 -88 -54 -172 -102 -191 -110 -252 -128 -348 -104 -35 9 -95 35 -134 58 -38
22 -118 68 -177 101 l-108 60 0 114 0 115 33 -21 c17 -12 86 -53 153 -91z
m-2294 13 c50 -45 -11 -116 -73 -83 -22 12 -27 68 -7 88 17 17 58 15 80 -5z
m5250 0 c22 -20 23 -42 2 -71 -29 -41 -94 -19 -94 33 0 49 55 72 92 38z
m-2290 -303 c-12 -11 -25 -20 -29 -20 -9 1 36 40 45 40 3 0 -4 -9 -16 -20z
m-667 -49 c1 -10 -4 -18 -11 -18 -9 0 -10 5 -4 17 5 10 7 20 5 24 -3 3 -2 4 2
1 4 -3 7 -14 8 -24z m625 19 c0 -5 -7 -10 -15 -10 -8 0 -15 -7 -15 -15 0 -19
5 -19 35 1 14 9 25 14 25 11 0 -4 -21 -18 -46 -33 -37 -22 -48 -24 -55 -13 -6
10 -8 8 -6 -9 1 -24 15 -23 71 5 21 11 27 11 24 2 -2 -7 -12 -13 -22 -15 -24
-3 -34 -16 -18 -21 19 -7 -33 -43 -135 -95 -80 -40 -91 -43 -167 -43 -89 0
-97 3 -249 89 -50 28 -82 53 -76 57 8 5 8 9 -1 14 -7 4 -15 3 -19 -3 -4 -7
-15 -3 -31 9 -21 17 -22 19 -3 10 26 -13 36 -14 29 -3 -2 4 4 8 14 8 10 0 16
-5 13 -10 -4 -5 1 -7 10 -3 10 3 17 3 17 -2 0 -4 12 -13 27 -20 24 -11 25 -10
13 4 -11 13 -10 15 4 9 9 -3 16 -12 16 -19 0 -12 21 -25 41 -25 5 0 9 10 9 22
0 21 -1 21 -13 3 -11 -14 -16 -15 -22 -5 -5 8 -4 11 2 7 5 -3 10 0 10 7 0 8
-7 12 -15 8 -11 -4 -13 -1 -7 9 4 8 5 11 0 7 -4 -4 -16 -3 -26 2 -12 7 -19 6
-23 -3 -2 -6 -4 2 -3 19 1 27 3 30 18 21 10 -6 15 -15 12 -21 -3 -5 -1 -6 5
-2 6 4 40 -8 74 -26 59 -31 69 -33 163 -33 l101 0 109 57 c117 61 125 64 125
48z m-2917 -24 c54 -23 72 -51 72 -113 0 -51 -3 -58 -37 -87 l-37 -32 50 -72
50 -73 -47 3 c-46 3 -47 4 -87 71 -37 61 -43 67 -74 67 l-33 0 0 -70 0 -70
-37 0 -36 0 6 98 c4 53 7 141 7 195 l0 97 85 0 c50 0 99 -6 118 -14z m5320 -9
c39 -26 62 -66 61 -109 -2 -43 -27 -88 -55 -95 -10 -3 -19 -8 -19 -11 0 -9 62
-107 83 -129 l20 -23 -46 0 -46 0 -43 70 c-39 63 -46 70 -75 70 l-33 0 0 -70
0 -70 -35 0 -35 0 0 196 0 196 98 -4 c72 -2 106 -8 125 -21z m-2343 -7 c-8 -5
-19 -10 -25 -10 -5 0 -3 5 5 10 8 5 20 10 25 10 6 0 3 -5 -5 -10z m-707 -162
c176 -101 223 -118 324 -118 96 1 141 18 329 125 73 42 139 75 146 73 13 -5
-182 -123 -301 -183 -93 -46 -185 -57 -276 -30 -62 17 -385 191 -385 206 0 18
24 7 163 -73z m-1800 -19 c28 -44 -25 -95 -72 -69 -24 12 -29 58 -9 78 17 17
68 11 81 -9z m4305 9 c21 -21 15 -67 -12 -79 -45 -21 -90 26 -66 71 12 23 58
28 78 8z m912 -1113 l0 -605 -3100 0 -3100 0 0 605 0 605 3100 0 3100 0 0
-605z m-4280 -1040 l0 -155 96 0 95 0 -3 -32 -3 -33 -127 -3 -128 -3 0 191 0
190 35 0 35 0 0 -155z m365 -35 l0 -185 -32 -3 -33 -3 0 191 0 191 33 -3 32
-3 0 -185z m358 168 c29 -11 57 -53 57 -85 0 -10 -7 -31 -15 -47 -14 -26 -13
-30 5 -53 51 -65 7 -155 -81 -168 -54 -8 -179 -3 -179 8 0 4 0 87 0 186 l0
178 93 -4 c50 -2 105 -9 120 -15z m350 8 c55 -4 102 -40 112 -87 9 -41 -12
-105 -41 -126 l-26 -19 37 -58 c41 -64 38 -79 -16 -74 -29 3 -38 11 -67 61
-29 48 -39 57 -63 57 -29 0 -29 0 -29 -61 l0 -60 -37 3 -38 3 -3 175 c-1 96
-1 179 2 186 4 10 25 10 169 0z m1149 -61 c23 -41 46 -75 50 -75 3 0 26 33 50
73 41 66 47 72 81 75 20 2 37 -1 37 -6 0 -6 -28 -57 -62 -114 -61 -100 -63
-105 -65 -178 l-2 -75 -35 -3 -36 -3 0 68 c0 67 -2 72 -65 178 -35 61 -65 113
-65 117 0 7 24 15 52 17 10 1 32 -26 60 -74z m-701 -30 c50 -111 109 -256 109
-267 0 -4 -18 -8 -39 -8 -34 0 -40 4 -50 30 l-10 30 -85 0 c-83 0 -85 -1 -98
-27 -10 -22 -21 -29 -51 -31 -21 -2 -37 1 -37 7 0 6 20 59 45 117 25 57 45
107 45 109 0 2 13 33 30 70 29 65 30 66 65 63 35 -3 37 -6 76 -93z m433 74
c70 -55 74 -131 10 -199 l-24 -26 35 -51 c19 -29 35 -57 35 -63 0 -5 -17 -10
-39 -10 -36 0 -40 3 -75 60 -29 46 -43 60 -61 60 -22 0 -24 -4 -27 -57 l-3
-58 -35 0 -35 0 -3 183 -2 182 98 0 c86 0 103 -3 126 -21z m-2501 -3 c79 -33
114 -121 79 -200 -50 -113 -218 -113 -272 0 -60 124 65 254 193 200z m3577 -1
c50 -26 84 -80 83 -134 -1 -63 -25 -106 -73 -131 -104 -53 -218 7 -227 119
-10 117 113 200 217 146z m-3950 -130 l0 -35 -352 0 c-314 0 -353 2 -370 17
-17 15 -17 17 -2 35 16 17 40 18 371 18 l353 0 0 -35z m4914 20 c19 -14 19
-15 1 -35 -17 -19 -30 -20 -367 -20 l-348 0 0 35 0 35 348 0 c287 -1 350 -3
366 -15z"/>
<path d="M3334 8501 c-2 -2 -4 -62 -4 -133 l0 -128 120 0 120 0 0 129 0 130
-116 3 c-64 2 -118 1 -120 -1z m147 -92 c16 -11 29 -28 29 -38 0 -26 -41 -60
-72 -58 -23 2 -27 8 -33 42 -5 33 -3 43 16 57 26 22 25 22 60 -3z"/>
<path d="M6538 8370 l-3 -130 113 0 112 0 0 130 0 130 -109 0 -110 0 -3 -130z
m150 28 c21 -32 21 -32 1 -60 -26 -36 -38 -35 -75 3 l-29 30 33 30 c18 16 36
29 41 29 5 0 18 -14 29 -32z"/>
<path d="M4133 7831 l-72 -68 78 -71 78 -71 54 47 c29 26 65 58 79 70 l25 24
-75 69 c-41 37 -79 68 -85 68 -5 0 -42 -31 -82 -68z"/>
<path d="M4055 7610 c-34 -35 -39 -26 79 -119 l78 -62 37 27 c89 67 140 110
141 119 0 6 -15 22 -33 37 l-34 26 -57 -49 -58 -49 -56 50 c-31 27 -59 50 -62
50 -3 0 -19 -14 -35 -30z"/>
<path d="M5803 7832 c-40 -37 -73 -72 -73 -77 0 -6 18 -23 40 -39 22 -17 40
-34 40 -39 0 -5 -25 -33 -56 -63 -64 -63 -70 -51 57 -128 l78 -48 58 41 c32
22 71 50 87 63 l28 24 -57 55 -58 56 46 42 46 43 -79 69 c-43 38 -80 69 -81
69 -2 -1 -37 -31 -76 -68z"/>
<path d="M4778 7538 c11 -14 52 -31 52 -22 0 2 -15 11 -32 20 -28 14 -31 15
-20 2z"/>
<path d="M4775 7500 c3 -5 11 -10 16 -10 6 0 7 5 4 10 -3 6 -11 10 -16 10 -6
0 -7 -4 -4 -10z"/>
<path d="M2369 7576 c-3 -3 -3 -23 -1 -45 3 -35 8 -41 27 -41 23 0 55 28 55
48 0 23 -65 53 -81 38z"/>
<path d="M3722 7383 c-7 -3 -18 -17 -23 -30 -16 -44 37 -83 69 -51 17 17 15
54 -4 72 -16 17 -21 18 -42 9z"/>
<path d="M6320 7360 c-21 -40 12 -80 54 -64 22 8 31 50 16 69 -18 22 -57 19
-70 -5z"/>
<path d="M4925 6380 c3 -5 8 -10 11 -10 2 0 4 5 4 10 0 6 -5 10 -11 10 -5 0
-7 -4 -4 -10z"/>
<path d="M7660 7129 c0 -15 5 -20 22 -17 34 5 37 38 4 38 -20 0 -26 -5 -26
-21z"/>
<path d="M4260 6386 c0 -7 71 -58 76 -53 2 2 -14 16 -36 31 -22 14 -40 25 -40
22z"/>
<path d="M5811 6377 c-6 -8 -8 -17 -4 -20 12 -13 22 -7 20 13 -2 24 -1 24 -16
7z"/>
<path d="M5885 4820 c-3 -6 1 -7 9 -4 18 7 21 14 7 14 -6 0 -13 -4 -16 -10z"/>
<path d="M5794 4764 c-18 -14 -18 -15 4 -4 12 6 22 13 22 15 0 8 -5 6 -26 -11z"/>
<path d="M5741 4724 c0 -11 3 -14 6 -6 3 7 2 16 -1 19 -3 4 -6 -2 -5 -13z"/>
<path d="M5320 4270 c0 -5 7 -10 16 -10 8 0 12 5 9 10 -3 6 -10 10 -16 10 -5
0 -9 -4 -9 -10z"/>
<path d="M5270 4240 c0 -5 5 -10 11 -10 5 0 7 5 4 10 -3 6 -8 10 -11 10 -2 0
-4 -4 -4 -10z"/>
<path d="M4740 4215 c0 -2 23 -16 50 -30 60 -31 64 -27 10 9 -37 24 -60 32
-60 21z"/>
<path d="M5315 4200 c3 -5 8 -10 11 -10 2 0 4 5 4 10 0 6 -5 10 -11 10 -5 0
-7 -4 -4 -10z"/>
<path d="M5280 4189 c0 -5 5 -7 10 -4 6 3 10 8 10 11 0 2 -4 4 -10 4 -5 0 -10
-5 -10 -11z"/>
<path d="M2327 4178 c-3 -29 -1 -57 3 -61 4 -5 32 -5 61 0 42 6 56 13 68 34
13 24 13 29 -2 53 -15 23 -24 26 -71 26 l-53 0 -6 -52z"/>
<path d="M7632 4173 l3 -58 39 -3 c21 -2 51 2 67 9 25 10 29 17 29 48 0 50
-14 61 -82 61 l-59 0 3 -57z"/>
<path d="M2060 3412 c0 -2 11 -20 25 -40 l25 -37 0 -365 c0 -307 -2 -369 -15
-386 -8 -10 -15 -22 -15 -26 0 -5 48 -8 106 -8 l105 0 -20 26 c-18 23 -21 41
-21 125 l0 99 29 0 c25 0 34 -9 69 -67 67 -111 78 -141 64 -164 -12 -18 -9
-19 99 -19 l110 0 -23 32 c-13 18 -51 82 -85 143 l-63 110 34 17 c44 23 83 69
96 116 5 20 10 88 10 151 0 130 -16 179 -73 227 -59 50 -90 57 -280 63 -97 3
-177 5 -177 3z m330 -147 c52 -27 60 -49 60 -165 0 -148 -26 -179 -144 -172
l-56 4 0 168 c0 188 -5 176 73 179 21 0 51 -6 67 -14z"/>
<path d="M3810 3408 c0 -4 9 -22 19 -40 18 -31 20 -58 23 -400 2 -284 0 -370
-9 -379 -34 -34 -17 -39 140 -39 180 0 229 12 288 71 63 63 71 110 67 377 -4
244 -8 265 -62 329 -49 59 -111 76 -299 82 -92 3 -167 3 -167 -1z m316 -143
c25 -10 40 -26 54 -57 17 -38 20 -66 20 -236 0 -265 -13 -292 -142 -292 l-68
0 0 293 c0 162 3 297 7 300 12 12 93 7 129 -8z"/>
<path d="M4610 3411 c0 -3 9 -24 20 -47 20 -40 21 -57 18 -407 -3 -343 -4
-366 -22 -386 l-19 -21 111 0 c62 0 112 4 112 8 0 5 -9 17 -20 27 -17 16 -20
31 -20 112 l0 93 34 0 c32 0 37 -5 72 -67 72 -129 74 -134 63 -154 -9 -18 -4
-19 100 -19 94 0 110 2 105 15 -4 8 -10 15 -15 15 -9 0 -149 230 -149 245 0 6
15 17 33 26 18 9 45 37 62 64 29 46 30 55 33 174 4 144 -5 185 -51 238 -57 65
-99 76 -295 83 -94 3 -172 3 -172 1z m351 -170 c29 -29 29 -31 29 -141 0 -110
0 -112 -29 -141 -27 -27 -35 -29 -100 -29 l-71 0 0 170 0 170 71 0 c65 0 73
-2 100 -29z"/>
<path d="M2660 3404 c0 -1 7 -15 15 -30 22 -43 22 -760 0 -790 -8 -10 -15 -22
-15 -26 0 -5 106 -8 235 -8 l235 0 0 81 0 80 -22 -15 c-18 -13 -51 -16 -150
-16 l-128 0 0 105 0 106 68 -3 c52 -2 67 -6 67 -18 0 -10 10 -15 29 -15 27 0
29 4 46 70 10 39 27 95 39 125 12 30 21 56 21 58 0 1 -27 2 -59 2 l-60 0 -3
-42 -3 -43 -70 0 -70 0 -3 121 -3 121 80 7 c90 8 166 0 196 -20 11 -8 23 -14
27 -14 10 0 10 80 2 133 l-7 38 -233 -3 c-129 -2 -234 -4 -234 -4z"/>
<path d="M3396 3386 c3 -15 -19 -116 -61 -268 -119 -434 -145 -522 -160 -538
-8 -9 -15 -20 -15 -23 0 -4 45 -7 100 -7 55 0 100 2 100 5 0 3 -5 13 -11 23
-8 13 -6 35 11 90 l22 73 102 -3 101 -3 18 -70 c13 -51 15 -76 7 -92 -10 -23
-10 -23 90 -23 55 0 100 2 100 4 0 3 -8 20 -18 38 -24 42 -44 112 -138 478
-41 162 -73 305 -71 318 4 22 2 22 -90 22 l-93 0 6 -24z m120 -396 l31 -120
-68 0 -68 0 20 68 c11 37 25 91 32 120 6 28 14 52 17 52 3 0 19 -54 36 -120z"/>
<path d="M5347 3396 c-60 -22 -96 -56 -127 -121 -18 -36 -20 -64 -20 -303 0
-286 3 -308 58 -366 44 -46 97 -66 182 -66 113 0 176 35 222 123 22 41 23 51
23 312 0 258 -1 272 -22 310 -29 55 -70 91 -122 110 -53 18 -143 19 -194 1z
m152 -132 c45 -32 51 -67 51 -299 0 -244 -5 -266 -67 -291 -44 -19 -83 -11
-117 23 l-26 26 0 247 0 248 29 31 c23 24 37 31 68 31 21 0 49 -7 62 -16z"/>
<path d="M5920 3401 c-116 -38 -180 -127 -180 -250 1 -114 46 -168 221 -257
80 -41 116 -65 130 -88 27 -44 24 -63 -16 -103 -35 -35 -37 -35 -104 -31 -56
3 -78 10 -120 35 l-50 32 -46 -52 c-25 -28 -45 -54 -45 -58 0 -9 127 -65 175
-78 71 -19 174 -14 230 13 119 55 168 186 114 302 -27 56 -57 79 -184 142
-145 72 -176 107 -161 185 16 87 143 120 226 59 l28 -21 55 60 c33 35 51 62
44 64 -129 48 -257 66 -317 46z"/>
<path d="M6280 3339 c0 -37 -3 -75 -7 -84 -6 -16 -5 -16 20 -1 17 12 50 18
103 19 l77 2 1 -332 c1 -330 1 -331 -22 -362 l-23 -31 116 0 c63 0 115 3 115
7 0 4 -10 17 -22 31 -23 23 -23 25 -23 354 l0 331 57 4 c50 3 96 -8 138 -34 3
-2 4 35 2 81 l-3 85 -265 -1 -264 -1 0 -68z"/>
<path d="M6855 3388 c10 -30 27 -567 22 -688 -3 -70 -9 -103 -22 -123 l-17
-27 241 0 241 0 0 79 0 80 -27 -15 c-20 -10 -64 -14 -155 -14 l-128 0 0 105 0
105 65 0 c58 0 65 -2 65 -20 0 -16 7 -20 30 -20 22 0 30 5 30 18 0 27 39 173
54 203 13 25 12 28 -8 33 -11 3 -35 6 -53 6 -30 0 -32 -2 -35 -42 l-3 -43 -73
-3 -73 -3 3 128 3 128 120 0 c98 0 126 -3 148 -17 14 -10 29 -18 32 -18 3 0 5
38 5 85 l0 85 -236 0 -236 0 7 -22z"/>
<path d="M7365 3394 c14 -34 24 -234 24 -509 0 -216 -3 -275 -14 -295 -8 -14
-14 -28 -15 -32 0 -5 45 -8 100 -8 55 0 100 2 100 5 0 3 -6 16 -14 28 -9 14
-15 58 -18 116 l-3 95 28 -1 c15 -1 31 -1 35 -2 5 -1 33 -48 62 -105 45 -89
52 -107 41 -120 -12 -14 -3 -16 93 -16 58 0 106 3 106 6 0 3 -9 18 -21 32 -22
29 -142 243 -137 246 108 61 131 102 136 249 5 141 -7 187 -67 247 -63 62 -98
72 -285 77 -152 5 -159 4 -151 -13z m301 -130 c51 -24 64 -58 64 -166 0 -72
-4 -99 -17 -118 -29 -43 -45 -49 -120 -50 l-73 0 0 168 c0 93 3 172 7 175 13
13 105 7 139 -9z"/>
<path d="M4444 2016 c-3 -8 -4 -27 -2 -43 3 -25 8 -28 42 -31 65 -5 86 4 86
38 0 36 -23 50 -80 50 -26 0 -43 -5 -46 -14z"/>
<path d="M4450 1834 l0 -46 61 4 c38 3 64 10 70 19 26 41 -6 69 -77 69 l-54 0
0 -46z"/>
<path d="M4850 1964 l0 -57 50 5 c59 6 80 21 80 57 0 39 -18 51 -77 51 l-53 0
0 -56z"/>
<path d="M5288 1937 c-34 -83 -36 -77 26 -77 31 0 56 2 56 5 0 14 -50 115 -57
115 -4 0 -16 -19 -25 -43z"/>
<path d="M5680 1965 l0 -55 41 0 c58 0 79 14 79 53 0 45 -16 57 -72 57 l-48 0
0 -55z"/>
<path d="M3211 1974 c-27 -35 -26 -59 4 -89 69 -70 164 24 98 98 -25 27 -78
22 -102 -9z"/>
<path d="M6781 1974 c-26 -34 -27 -68 -1 -94 38 -38 114 -19 120 30 11 78 -73
123 -119 64z"/>
</g>
</svg>
